# xmcd
#
# Track frame offsets: 
#        150
#        13920
#        25469
#        34708
#        47363
#        62599
#        71835
#        84956
#        91156
#        102682
#        111361
#        122588
#        131612
#        144804
#        157620
#        166103
#        177616
#        189501
#        199940
#        210302
#
# Disc length: 2937 seconds
#
# Revision: 0
# Processed by: cddbd v1.5.1PL0 Copyright (c) Steve Scherf et al.
# Submitted via: ExactAudioCopy v0.95a5
#
DISCID=0a0b7714
DTITLE=Various Artist - Driving Home For Christmas
DYEAR=2003
DGENRE=Swing
TTITLE0=Bing Crosby - White Christmas
TTITLE1=Frank Sinatra - Have Yourself A Merry Little Christmas
TTITLE2=Nat King Cole - The Christmas Song
TTITLE3=Dean Martin - Silent Night
TTITLE4=The Drifters - We Wish You A Merry Christmas
TTITLE5=Bing Crosby and Ella Fitzgerald - Silver Bells
TTITLE6=Perry Como - I'll Be Home For Christmas
TTITLE7=Frank Sinatra - Winter Wonderland
TTITLE8=Brook Benton - Merry Christmas All
TTITLE9=Nat King Cole - Jingle Bells
TTITLE10=Rosemary Clooney - Little Drummer Boy
TTITLE11=The Platters - Blue Christmas
TTITLE12=Chuck Berry - Merry Christmas Baby
TTITLE13=Bing Crosby and Ella Fitzgerald - Marshmallow World
TTITLE14=Gene Autry - Frosty The Snowman
TTITLE15=Frank Sinatra - Santa Claus Is Coming To Town
TTITLE16=Rosemary Clooney - Suzy Snowflake
TTITLE17=Bing Crosby - Rudolph The Red Nosed Reindeer
TTITLE18=Bobby Sherman - I Saw Mommy Kissing Santa Claus
TTITLE19=The Drifters - Auld Lang Syne
EXTD=
EXTT0=
EXTT1=
EXTT2=
EXTT3=
EXTT4=
EXTT5=
EXTT6=
EXTT7=
EXTT8=
EXTT9=
EXTT10=
EXTT11=
EXTT12=
EXTT13=
EXTT14=
EXTT15=
EXTT16=
EXTT17=
EXTT18=
EXTT19=
PLAYORDER=
